<svg xmlns="http://www.w3.org/2000/svg" width="24" height="24" viewBox="0 0 24 24" fill="none" stroke="currentColor" stroke-width="1.6" stroke-linecap="round" stroke-linejoin="round">
  <ellipse cx="12" cy="12" rx="6" ry="4"/>
  <path d="M6 12h12"/>
  <path d="M9 10.5c.8.8.8 2.2 0 3"/>
  <path d="M15 10.5c-.8.8-.8 2.2 0 3"/>
  <path d="M7.5 8.5C6.2 7.2 6 6 6.7 5.3c.7-.7 1.9-.5 3.2.8"/>
  <path d="M16.5 8.5c1.3-1.3 1.5-2.5.8-3.2c-.7-.7-1.9-.5-3.2.8"/>
  <circle cx="12" cy="7.5" r="1"/>
  <path d="M12 16v2"/>
  <path d="M10 20h4"/>
</svg>


